<svg id="visual" viewBox="0 0 900 600" width="900" height="600" xmlns="http://www.w3.org/2000/svg" xmlns:xlink="http://www.w3.org/1999/xlink" version="1.1"><rect x="0" y="0" width="900" height="600" fill="#001220"></rect><path d="M0 379L21.5 387.5C43 396 86 413 128.8 409.8C171.7 406.7 214.3 383.3 257.2 377.5C300 371.7 343 383.3 385.8 387.8C428.7 392.3 471.3 389.7 514.2 385.2C557 380.7 600 374.3 642.8 371C685.7 367.7 728.3 367.3 771.2 379.5C814 391.7 857 416.3 878.5 428.7L900 441L900 601L878.5 601C857 601 814 601 771.2 601C728.3 601 685.7 601 642.8 601C600 601 557 601 514.2 601C471.3 601 428.7 601 385.8 601C343 601 300 601 257.2 601C214.3 601 171.7 601 128.8 601C86 601 43 601 21.5 601L0 601Z" fill="#fa7268"></path><path d="M0 406L21.5 409.7C43 413.3 86 420.7 128.8 426.7C171.7 432.7 214.3 437.3 257.2 433.2C300 429 343 416 385.8 412C428.7 408 471.3 413 514.2 422.3C557 431.7 600 445.3 642.8 449.2C685.7 453 728.3 447 771.2 445.5C814 444 857 447 878.5 448.5L900 450L900 601L878.5 601C857 601 814 601 771.2 601C728.3 601 685.7 601 642.8 601C600 601 557 601 514.2 601C471.3 601 428.7 601 385.8 601C343 601 300 601 257.2 601C214.3 601 171.7 601 128.8 601C86 601 43 601 21.5 601L0 601Z" fill="#ef5f67"></path><path d="M0 440L21.5 447.7C43 455.3 86 470.7 128.8 470.7C171.7 470.7 214.3 455.3 257.2 452.5C300 449.7 343 459.3 385.8 462.5C428.7 465.7 471.3 462.3 514.2 457.5C557 452.7 600 446.3 642.8 447.3C685.7 448.3 728.3 456.7 771.2 466.2C814 475.7 857 486.3 878.5 491.7L900 497L900 601L878.5 601C857 601 814 601 771.2 601C728.3 601 685.7 601 642.8 601C600 601 557 601 514.2 601C471.3 601 428.7 601 385.8 601C343 601 300 601 257.2 601C214.3 601 171.7 601 128.8 601C86 601 43 601 21.5 601L0 601Z" fill="#e34c67"></path><path d="M0 531L21.5 531.2C43 531.3 86 531.7 128.8 524.5C171.7 517.3 214.3 502.7 257.2 499.3C300 496 343 504 385.8 511.8C428.7 519.7 471.3 527.3 514.2 530.3C557 533.3 600 531.7 642.8 528C685.7 524.3 728.3 518.7 771.2 515C814 511.3 857 509.7 878.5 508.8L900 508L900 601L878.5 601C857 601 814 601 771.2 601C728.3 601 685.7 601 642.8 601C600 601 557 601 514.2 601C471.3 601 428.7 601 385.8 601C343 601 300 601 257.2 601C214.3 601 171.7 601 128.8 601C86 601 43 601 21.5 601L0 601Z" fill="#d53867"></path><path d="M0 526L21.5 527.8C43 529.7 86 533.3 128.8 540C171.7 546.7 214.3 556.3 257.2 561.3C300 566.3 343 566.7 385.8 561.3C428.7 556 471.3 545 514.2 546C557 547 600 560 642.8 562.8C685.7 565.7 728.3 558.3 771.2 556.7C814 555 857 559 878.5 561L900 563L900 601L878.5 601C857 601 814 601 771.2 601C728.3 601 685.7 601 642.8 601C600 601 557 601 514.2 601C471.3 601 428.7 601 385.8 601C343 601 300 601 257.2 601C214.3 601 171.7 601 128.8 601C86 601 43 601 21.5 601L0 601Z" fill="#c62368"></path></svg>