<svg id="visual" viewBox="0 0 900 600" width="900" height="600" xmlns="http://www.w3.org/2000/svg" xmlns:xlink="http://www.w3.org/1999/xlink" version="1.1"><rect x="0" y="0" width="900" height="600" fill="#420099"></rect><path d="M0 255L18.8 258.5C37.7 262 75.3 269 112.8 272.2C150.3 275.3 187.7 274.7 225.2 275.8C262.7 277 300.3 280 337.8 262.8C375.3 245.7 412.7 208.3 450.2 202.7C487.7 197 525.3 223 562.8 222.5C600.3 222 637.7 195 675.2 200C712.7 205 750.3 242 787.8 260.5C825.3 279 862.7 279 881.3 279L900 279L900 0L881.3 0C862.7 0 825.3 0 787.8 0C750.3 0 712.7 0 675.2 0C637.7 0 600.3 0 562.8 0C525.3 0 487.7 0 450.2 0C412.7 0 375.3 0 337.8 0C300.3 0 262.7 0 225.2 0C187.7 0 150.3 0 112.8 0C75.3 0 37.7 0 18.8 0L0 0Z" fill="#160033" stroke-linecap="round" stroke-linejoin="miter"></path></svg>