<svg id="visual" viewBox="0 0 960 540" width="960" height="540" xmlns="http://www.w3.org/2000/svg" xmlns:xlink="http://www.w3.org/1999/xlink" version="1.1"><rect x="0" y="0" width="960" height="540" fill="#00202e"></rect><g transform="translate(1032.0641073124364 50.778829567867206)"><path d="M266.6 -407.9C374 -345.9 509 -320 511.1 -252C513.2 -184 382.3 -73.9 328.7 21.7C275.2 117.3 298.9 198.5 274.6 252.1C250.2 305.7 177.6 331.8 98.1 373C18.5 414.2 -68.1 470.5 -111.1 432.9C-154.1 395.4 -153.6 264 -261.4 195.4C-369.3 126.8 -585.5 121.1 -640.4 62.3C-695.2 3.5 -588.7 -108.4 -478.7 -164.4C-368.8 -220.5 -255.5 -220.9 -175.1 -295.2C-94.8 -369.5 -47.4 -517.7 16.1 -542.8C79.7 -567.9 159.3 -469.9 266.6 -407.9" fill="#003f5c"></path></g></svg>